<?xml version="1.0" encoding="UTF-8" standalone="no"?>
<svg width="64px" height="64px" viewBox="0 0 64 64" version="1.1" xmlns="http://www.w3.org/2000/svg" xmlns:xlink="http://www.w3.org/1999/xlink" xmlns:sketch="http://www.bohemiancoding.com/sketch/ns">
    <!-- Generator: Sketch 3.5.1 (25234) - http://www.bohemiancoding.com/sketch -->
    <title>Acoustic Guitar</title>
    <desc>Created with Sketch.</desc>
    <defs></defs>
    <g id="Page-1" stroke="none" stroke-width="1" fill="none" fill-rule="evenodd" sketch:type="MSPage">
        <g id="Acoustic-Guitar" sketch:type="MSArtboardGroup" fill="#000000">
            <path d="M22.0002515,57 C22.0002515,58.105 22.8952515,59 24.0002515,59 L40.0002515,59 C41.1052515,59 42.0002515,58.105 42.0002515,57 L42.0002515,55 L22.0002515,55 L22.0002515,57 Z M32.0002515,45.5 C26.2102515,45.5 21.5002515,40.79 21.5002515,35 C21.5002515,29.21 26.2102515,24.5 32.0002515,24.5 C37.7902515,24.5 42.5002515,29.21 42.5002515,35 C42.5002515,40.79 37.7902515,45.5 32.0002515,45.5 L32.0002515,45.5 Z M32.0002515,23.5 C25.6592515,23.5 20.5002515,28.659 20.5002515,35 C20.5002515,41.341 25.6592515,46.5 32.0002515,46.5 C38.3412515,46.5 43.5002515,41.341 43.5002515,35 C43.5002515,28.659 38.3412515,23.5 32.0002515,23.5 L32.0002515,23.5 Z M32.0002515,26 C27.0292515,26 23.0002515,30.029 23.0002515,35 C23.0002515,39.971 27.0292515,44 32.0002515,44 C36.9712515,44 41.0002515,39.971 41.0002515,35 C41.0002515,30.029 36.9712515,26 32.0002515,26 L32.0002515,26 Z M61.9162515,56.6 C59.4612515,50.983 57.4002515,47.925 55.7452515,45.468 C53.9472515,42.799 52.7602515,41.036 52.2622515,37.495 C51.8632515,34.663 52.9132515,32.012 54.0232515,29.205 C55.5212515,25.424 57.0672515,21.514 55.1622515,16.89 C51.8872515,8.946 43.7362515,7.37 37.3532515,7.066 L37.0002515,0 L27.0002515,0 L26.6472515,7.065 C20.2652515,7.368 12.1142515,8.945 8.83825154,16.89 C6.93325154,21.514 8.47925154,25.424 9.97725154,29.205 C11.0872515,32.012 12.1372515,34.663 11.7382515,37.495 C11.2402515,41.036 10.0532515,42.799 8.25525154,45.468 C6.60025154,47.925 4.53925154,50.983 2.08425154,56.6 C0.378251542,60.503 0.0252515422,62.757 0.0112515422,62.852 C-0.0707484578,63.396 0.304251542,63.904 0.849251542,63.987 C1.40325154,64.071 1.90425154,63.695 1.98825154,63.151 C1.99225154,63.131 2.33025154,61.03 3.91625154,57.4 C6.29925154,51.95 8.30325154,48.976 9.91325154,46.585 C11.7962515,43.79 13.1562515,41.771 13.7192515,37.774 C14.1902515,34.418 12.9932515,31.394 11.8362515,28.469 C10.4242515,24.899 9.08925154,21.528 10.6872515,17.651 C13.5132515,10.798 20.5942515,9.365 26.5462515,9.073 L26.0002515,20 C26.0002515,21.1 26.9002515,22 28.0002515,22 L36.0002515,22 C37.1002515,22 38.0002515,21.1 38.0002515,20 L37.4542515,9.072 C43.4132515,9.364 50.4862515,10.795 53.3122515,17.651 C54.9112515,21.528 53.5762515,24.899 52.1642515,28.469 C51.0072515,31.394 49.8102515,34.418 50.2812515,37.774 C50.8442515,41.771 52.2042515,43.79 54.0872515,46.585 C55.6972515,48.976 57.7012515,51.95 60.0842515,57.4 C61.6702515,61.03 62.0082515,63.131 62.0122515,63.151 C62.0872515,63.646 62.5132515,64 62.9992515,64 C63.0482515,64 63.0992515,63.996 63.1482515,63.989 C63.6952515,63.906 64.0712515,63.397 63.9892515,62.852 C63.9752515,62.757 63.6222515,60.503 61.9162515,56.6 L61.9162515,56.6 Z" sketch:type="MSShapeGroup"></path>
        </g>
    </g>
</svg>